<svg xmlns="http://www.w3.org/2000/svg" viewBox="0 0 41 69"><path d="M35.72 32.36c-.81-1.28-1.72-2.5-2.72-3.66-.48-.56-.98-1.11-1.49-1.64-1.92-1.99-4.07-3.81-6.32-5.5-3.45-2.6-7.13-4.9-10.58-7.08-.44-.27-.87-.55-1.3-.82-2.35-1.47-4.74-2.95-6.64-4.97-1.89-2.03-3.26-4.71-3.1-7.47-.3 1.68-.94 3-1.23 4.68C-.07 19.66.6 33.6 7.12 46.23c2.08 4.02 4.7 7.85 8.28 10.61 1.23.95 2.66 1.82 4.19 2.49.22.1.45.19.67.28.26.1.53.2.79.29-.65.9-3.61 4.67-7.86 5.84-4.83 1.33-.33 2.67 1.17 2.33 1.32-.29 8.13-2.96 10.97-7.43 2.06-2.64 2.92-6.4 3.03-9.63.07-2.09-.07-4.21-.59-6.24-.54-2.12-1.45-4.06-2.57-5.89-.56-.91-1.16-1.8-1.8-2.67A59.33 59.33 0 0 0 21.69 34c-1.43-1.78-2.86-3.55-4.3-5.32-3.07-3.79-6.16-7.57-9.23-11.35 3 3.71 7.19 6.48 10.72 9.71.3.27.59.54.88.82 1.89 1.83 3.76 3.8 5.44 5.91.63.79 1.24 1.6 1.8 2.43 1.22 1.78 2.27 3.65 3.08 5.62.69 1.7 1.21 3.46 1.51 5.27.67 4.02.18 8.64-1.45 12.51-.01.01-.01.03-.02.04.23-.1.46-.21.68-.32 2.79-1.39 5.12-3.79 6.6-6.75 3.24-6.42 2.08-14.24-1.68-20.21z" fill="#a18d2f"/></svg>