<svg id="search-icon" xmlns="http://www.w3.org/2000/svg" width="24.605" height="24.605" viewBox="0 0 24.605 24.605">
  <defs>
    <style>
      .cls-1 {
        fill: none;
        stroke-linecap: round;
      }

      .cls-2, .cls-3 {
        stroke: none;
      }

      .cls-3 {
        fill: #fff;
      }
    </style>
  </defs>
  <g id="search-icon-2" data-name="search-icon" class="cls-1" transform="translate(0 9.9) rotate(-45)">
    <path class="cls-2" d="M5.857,19.67V13.908a7,7,0,1,1,2.253.005V19.67a1.126,1.126,0,0,1-2.253,0Z"/>
    <path class="cls-3" d="M 6.987950801849365 12.0663948059082 L 7.795350074768066 11.93781089782715 C 8.955220222473145 11.75309085845947 10.01930999755859 11.15733051300049 10.7916202545166 10.26026058197021 C 11.57111072540283 9.354850769042969 12.00040054321289 8.197070121765137 12.00040054321289 7.000200271606445 C 12.00040054321289 4.243080615997314 9.757320404052734 2.000000476837158 7.000200271606445 2.000000476837158 C 4.243080139160156 2.000000476837158 2.000000238418579 4.243080615997314 2.000000238418579 7.000200271606445 C 2.000000238418579 8.192900657653809 2.426610231399536 9.347580909729004 3.20123028755188 10.25152015686035 C 3.968510389328003 11.14689064025879 5.026830196380615 11.74437999725342 6.181260108947754 11.93394088745117 L 6.987950801849365 12.0663948059082 M 6.984000205993652 20.79630088806152 C 6.361200332641602 20.79630088806152 5.857200145721436 20.29230117797852 5.857200145721436 19.67040061950684 L 5.857200145721436 13.90751075744629 C 2.534440279006958 13.36192035675049 2.716064386731887e-07 10.47665023803711 2.716064386731887e-07 7.000200271606445 C 2.716064386731887e-07 3.133800506591797 3.133800268173218 4.440307748154737e-07 7.000200271606445 4.440307748154737e-07 C 10.86660003662109 4.440307748154737e-07 14.00040054321289 3.133800506591797 14.00040054321289 7.000200271606445 C 14.00040054321289 10.48821067810059 11.44894981384277 13.3811502456665 8.10990047454834 13.91291999816895 L 8.10990047454834 19.67040061950684 C 8.10990047454834 20.29230117797852 7.605900287628174 20.79630088806152 6.984000205993652 20.79630088806152 Z"/>
  </g>
</svg>
