<svg id="fi-menu-icon" data-name="Layer 1" xmlns="http://www.w3.org/2000/svg" viewBox="0 0 112 88"><defs></defs><title>menu-icon</title><path class="cls-1" d="M109.2,36H2.8C1.25,36,0,37.79,0,40v8c0,2.21,1.25,4,2.8,4H109.2c1.55,0,2.8-1.79,2.8-4V40C112,37.79,110.75,36,109.2,36Z"/><path class="cls-1" d="M109.2,72H2.8C1.25,72,0,73.79,0,76v8c0,2.21,1.25,4,2.8,4H109.2c1.55,0,2.8-1.79,2.8-4V76C112,73.79,110.75,72,109.2,72Z"/><path class="cls-1" d="M109.2,0H2.8C1.25,0,0,1.79,0,4v8c0,2.21,1.25,4,2.8,4H109.2c1.55,0,2.8-1.79,2.8-4V4C112,1.79,110.75,0,109.2,0Z"/></svg>