<svg id="mail-icon" data-name="Layer 1" xmlns="http://www.w3.org/2000/svg" viewBox="0 0 197.38 197.38"><defs></defs><title>mail-circle-icon</title><path class="circle-part" d="M98.69,14A84.69,84.69,0,1,1,14,98.69,84.69,84.69,0,0,1,98.69,14m0-14a98.69,98.69,0,1,0,98.69,98.69A98.8,98.8,0,0,0,98.69,0Z"/><path class="mail-part" d="M43.6,56.57a9.73,9.73,0,0,0-3.59.7l55,48c2.37,2.08,4.9,2.08,7.29,0l55.08-48a9.73,9.73,0,0,0-3.59-.7ZM34,64.92a10.27,10.27,0,0,0-.1,1.37V131.1a9.7,9.7,0,0,0,9.72,9.72H153.78a9.7,9.7,0,0,0,9.72-9.72V66.29a10.27,10.27,0,0,0-.1-1.37l-54.73,47.75a15.32,15.32,0,0,1-20,0Z"/></svg>