<svg id="phone-icon" data-name="Layer 1" xmlns="http://www.w3.org/2000/svg" viewBox="0 0 197.38 197.38"><title>phone-circle-icon</title><path class="phone-part" d="M62.88,33.64A23.64,23.64,0,0,1,67,34a24.23,24.23,0,0,1,6,1.77,1,1,0,0,1,.58.76l6.31,39.84a1,1,0,0,1-.32.91,24.82,24.82,0,0,1-11.37,5.79,1,1,0,0,0-.76,1.33,75.21,75.21,0,0,0,44.71,44.7,1,1,0,0,0,1.32-.76A24.74,24.74,0,0,1,119,117.28a1,1,0,0,1,.92-.33l40.26,6.38a1,1,0,0,1,.78.59,25.53,25.53,0,0,1,1.95,9.59c.07,13.83-11.7,25.19-25.52,25.12a100,100,0,0,1-99.47-100A25,25,0,0,1,62.88,33.64Z"/><path class="circle-part" d="M98.69,14A84.69,84.69,0,1,1,14,98.69,84.69,84.69,0,0,1,98.69,14m0-14a98.69,98.69,0,1,0,98.69,98.69A98.8,98.8,0,0,0,98.69,0Z"/></svg>