<?xml version="1.0" encoding="utf-8"?>
<!-- Generator: Adobe Illustrator 24.1.2, SVG Export Plug-In . SVG Version: 6.00 Build 0)  -->
<svg version="1.1" id="Layer_1" xmlns="http://www.w3.org/2000/svg" xmlns:xlink="http://www.w3.org/1999/xlink" x="0px" y="0px"
	 viewBox="0 0 467.88 366.88" enable-background="new 0 0 467.88 366.88" xml:space="preserve">
<path d="M123.22,90.54c20.37-21.51,19.45-55.47-2.06-75.84S65.69-4.75,45.32,16.76c-19.6,20.69-19.6,53.09,0,73.78
	C18.66,97.52,0.05,121.58,0,149.13v76.91c0.03,17.11,13.89,30.96,30.99,30.99h5.44v81.6c0.03,15.59,12.66,28.22,28.25,28.25h39.08
	c15.59-0.03,28.22-12.66,28.25-28.25v-81.6h5.44c17.11-0.03,30.96-13.89,30.99-30.99v-76.96
	C168.39,121.57,149.83,97.54,123.22,90.54z M84.24,20.02c18.6,0,33.69,15.08,33.69,33.69S102.85,87.4,84.24,87.4
	S50.56,72.32,50.56,53.71l0,0C50.58,35.12,65.65,20.05,84.24,20.02z M148.52,226.04c0,6.09-4.94,11.03-11.03,11.03h-5.44V141.7
	c0-5.51-4.47-9.98-9.98-9.98s-9.98,4.47-9.98,9.98v196.93c0,4.58-3.71,8.28-8.28,8.28c0,0,0,0,0,0h-9.58v-77.41
	c0-5.51-4.47-9.98-9.98-9.98s-9.98,4.47-9.98,9.98v77.41h-9.58c-4.58,0-8.28-3.71-8.28-8.28l0,0V141.7c0-5.51-4.47-9.98-9.98-9.98
	s-9.98,4.47-9.98,9.98v95.37h-5.44c-6.09,0-11.03-4.94-11.03-11.03v-76.91c0.11-22.39,18.28-40.5,40.67-40.52h47.31
	c22.42,0.03,40.6,18.2,40.62,40.62L148.52,226.04z"/>
<path d="M422.66,90.54c20.37-21.51,19.45-55.47-2.06-75.84s-55.47-19.45-75.84,2.06c-19.6,20.69-19.6,53.09,0,73.78
	c-26.65,6.98-45.26,31.04-45.32,58.59v76.91c0.03,17.11,13.89,30.96,30.99,30.99h5.44v81.6c0.03,15.59,12.66,28.22,28.25,28.25
	h39.08c15.59-0.03,28.22-12.66,28.25-28.25v-81.6h5.44c17.11-0.03,30.96-13.89,30.99-30.99v-76.96
	C467.83,121.57,449.27,97.54,422.66,90.54z M383.68,20.02c18.6,0,33.69,15.08,33.69,33.69S402.29,87.4,383.68,87.4
	c-18.6,0-33.69-15.08-33.69-33.69C350.02,35.12,365.09,20.05,383.68,20.02z M447.96,226.04c0,6.09-4.94,11.03-11.03,11.03h-5.44
	V141.7c0-5.51-4.47-9.98-9.98-9.98c-5.51,0-9.98,4.47-9.98,9.98v196.93c0,4.58-3.71,8.28-8.28,8.28h0h-9.58v-77.41
	c0-5.51-4.47-9.98-9.98-9.98s-9.98,4.47-9.98,9.98v77.41h-9.58c-4.58,0-8.28-3.71-8.28-8.28v0V141.7c0-5.51-4.47-9.98-9.98-9.98
	c-5.51,0-9.98,4.47-9.98,9.98v95.37h-5.44c-6.09,0-11.03-4.94-11.03-11.03v-76.91c0.11-22.39,18.28-40.5,40.67-40.52h47.31
	c22.42,0.03,40.6,18.2,40.62,40.62L447.96,226.04z"/>
<path d="M204.02,132.76h39.93l-9.33,12.23c-3.35,4.38-2.51,10.65,1.87,14s10.65,2.51,14-1.87l0,0l21.61-28.3
	c0.31-0.46,0.57-0.94,0.8-1.45v-0.3l0,0c0.26-0.59,0.46-1.21,0.6-1.85c0-0.3,0-0.6,0-0.9c0.08-0.95,0.08-1.9,0-2.84
	c0-0.3,0-0.6,0-0.9c-0.13-0.68-0.33-1.35-0.6-2l0,0v-0.3c-0.23-0.5-0.49-0.99-0.8-1.45l-21.61-28.3c-3.35-4.38-9.62-5.22-14-1.87
	c-4.38,3.35-5.22,9.62-1.87,14l9.33,11.98h-39.93c-5.51,0-9.98,4.47-9.98,9.98l0,0c-0.08,5.51,4.32,10.05,9.83,10.13
	C203.92,132.76,203.97,132.76,204.02,132.76z"/>
<path d="M263.91,234.17h-39.93l9.38-12.23c3.35-4.38,2.51-10.65-1.87-14s-10.65-2.51-14,1.87l-21.61,28.3
	c-0.3,0.44-0.57,0.91-0.8,1.4v0.3l0,0c-0.26,0.59-0.46,1.21-0.6,1.85c0,0.3,0,0.6,0,0.9c-0.08,0.95-0.08,1.9,0,2.84
	c0,0.3,0,0.6,0,0.9c0.14,0.63,0.34,1.25,0.6,1.85l0,0v0.3c0.23,0.49,0.5,0.95,0.8,1.4l21.61,28.3c3.35,4.38,9.62,5.22,14,1.87
	s5.22-9.62,1.87-14l-9.38-11.73h39.93c5.51,0,9.98-4.47,9.98-9.98l0,0c0.08-5.51-4.32-10.05-9.83-10.13
	C264.01,234.17,263.96,234.17,263.91,234.17z"/>
</svg>
