<?xml version="1.0" encoding="utf-8"?>
<!-- Generator: Adobe Illustrator 24.1.2, SVG Export Plug-In . SVG Version: 6.00 Build 0)  -->
<svg version="1.1"
	 id="Layer_1" xmlns:cc="http://creativecommons.org/ns#" xmlns:dc="http://purl.org/dc/elements/1.1/" xmlns:rdf="http://www.w3.org/1999/02/22-rdf-syntax-ns#"
	 xmlns="http://www.w3.org/2000/svg" xmlns:xlink="http://www.w3.org/1999/xlink" x="0px" y="0px" viewBox="0 0 464.8 447.09"
	 enable-background="new 0 0 464.8 447.09" xml:space="preserve">
<path color-rendering="auto" image-rendering="auto" shape-rendering="auto" d="M233,0.01c-0.57-0.02-1.14,0-1.71,0.03
	c-0.01,0-0.02,0-0.03,0c-0.01,0-0.02,0-0.03,0c-0.02,0-0.05,0-0.07,0c-5.03,0.3-9.69,2.71-12.85,6.63
	c-2.99,2.7-114.27,102.88-158.86,143.01L5.91,197.84c-7.34,6.61-7.92,17.92-1.31,25.26c6.61,7.34,17.92,7.92,25.26,1.31l5.9-5.31
	v156.49c0,13.37-0.06,23.65,0.98,32.92c1.04,9.27,3.45,19.01,11,26.57s17.29,9.99,26.57,11.03c9.28,1.05,19.57,0.98,32.96,0.98
	h17.88c13.39,0,23.68,0.07,32.96-0.98c9.28-1.05,19.02-3.48,26.57-11.03s9.96-17.3,11-26.57c1.04-9.27,0.98-19.55,0.98-32.92v-35.75
	c0-13.36,0.08-23.15,0.73-28.94c0.33-2.9,0.73-4.43,0.94-5.13c0.71-0.22,2.24-0.62,5.13-0.94c5.79-0.65,15.57-0.73,28.94-0.73
	s23.15,0.08,28.94,0.73c2.9,0.33,4.43,0.72,5.13,0.94c0.21,0.7,0.62,2.24,0.94,5.13c0.65,5.79,0.73,15.58,0.73,28.94v35.75
	c0,13.39-0.07,23.68,0.98,32.96c1.05,9.28,3.48,19.02,11.03,26.57c7.56,7.55,17.3,9.96,26.57,11c9.27,1.04,19.55,0.98,32.92,0.98
	h17.88c13.39,0,23.68,0.07,32.96-0.98c9.28-1.05,19.02-3.48,26.57-11.03c7.55-7.56,9.96-17.3,11-26.57
	c1.04-9.27,0.98-19.55,0.98-32.92V219.1l5.9,5.31c7.34,6.61,18.65,6.03,25.26-1.31c6.61-7.34,6.03-18.65-1.31-25.26l0,0
	l-53.52-48.15C360.81,109.59,249.72,9.58,246.58,6.75c-0.01-0.01-0.02-0.02-0.03-0.03C243.24,2.58,238.28,0.13,233,0.01L233,0.01z
	 M232.4,42.15c7.32,6.59,41.01,36.9,72.76,65.47l76.36,68.71c7.49,6.78,11.77,16.4,11.77,26.5v172.76c0,13.36-0.08,23.15-0.73,28.94
	c-0.33,2.9-0.73,4.43-0.94,5.13c-0.71,0.22-2.24,0.62-5.13,0.94c-5.79,0.65-15.57,0.73-28.94,0.73h-17.88
	c-13.36,0-23.15-0.08-28.94-0.73c-2.9-0.33-4.43-0.73-5.13-0.94c-0.22-0.71-0.62-2.24-0.94-5.13c-0.65-5.79-0.73-15.57-0.73-28.94
	v-35.75c0-13.37,0.06-23.65-0.98-32.92c-1.04-9.27-3.45-19.01-11-26.57c-7.55-7.56-17.29-9.99-26.57-11.03
	c-9.28-1.05-19.57-0.98-32.96-0.98s-23.68-0.07-32.96,0.98c-9.28,1.05-19.02,3.48-26.57,11.03c-7.55,7.56-9.96,17.3-11,26.57
	c-1.04,9.27-0.98,19.55-0.98,32.92v35.75c0,13.36-0.08,23.15-0.73,28.94c-0.33,2.9-0.73,4.43-0.94,5.13
	c-0.71,0.22-2.24,0.62-5.13,0.94c-5.79,0.65-15.57,0.73-28.94,0.73h-17.88c-13.37,0-23.15-0.08-28.94-0.73
	c-2.9-0.33-4.43-0.72-5.13-0.94c-0.21-0.7-0.62-2.24-0.94-5.13c-0.65-5.79-0.73-15.58-0.73-28.94V202.83
	c0-10.13,4.3-19.79,11.84-26.57c21.41-19.27,43-38.69,76.29-68.64L232.4,42.15L232.4,42.15z"/>
</svg>
