<?xml version="1.0" encoding="utf-8"?>
<!-- Generator: Adobe Illustrator 24.1.2, SVG Export Plug-In . SVG Version: 6.00 Build 0)  -->
<svg version="1.1" id="Layer_1" xmlns="http://www.w3.org/2000/svg" xmlns:xlink="http://www.w3.org/1999/xlink" x="0px" y="0px"
	 viewBox="0 0 463 192.92" enable-background="new 0 0 463 192.92" xml:space="preserve">
<g>
	<path d="M395.49,28.94h-19.3v-9.65C376.19,8.63,367.55,0,356.9,0H106.11c-10.65,0-19.3,8.63-19.3,19.29v9.65H67.53
		C30.24,28.94,0,59.17,0,96.46s30.24,67.53,67.53,67.53h19.29v9.64c0,10.65,8.65,19.3,19.3,19.3H356.9
		c10.65,0,19.29-8.65,19.29-19.3v-9.64h19.3c37.29,0,67.51-30.24,67.51-67.53S432.78,28.94,395.49,28.94z M67.53,144.68
		c-26.59,0-48.22-21.63-48.22-48.22s21.63-48.23,48.22-48.23h19.29v96.46H67.53z M356.9,173.62H106.11V19.29H356.9V173.62z
		 M395.49,144.68h-19.3V48.22h19.3c26.59,0,48.22,21.64,48.22,48.23S422.08,144.68,395.49,144.68z"/>
	<path d="M328.13,135.04H135.22l0,0c-0.06,0-0.11,0-0.17,0c-5.33,0-9.65,4.32-9.65,9.64c0,5.34,4.32,9.65,9.65,9.65
		c0.06,0,0.11-0.01,0.17-0.01v0.01h192.91c5.33,0,9.65-4.31,9.65-9.65C337.78,139.37,333.46,135.04,328.13,135.04z"/>
	<path d="M134.97,115.74c0.06,0,0.11,0,0.17,0l0,0h192.91c5.33,0,9.65-4.32,9.65-9.64c0-5.34-4.32-9.65-9.65-9.65H135.14v0.01
		c-0.06,0-0.11-0.01-0.17-0.01c-5.33,0-9.65,4.31-9.65,9.65C125.32,111.42,129.64,115.74,134.97,115.74z"/>
</g>
</svg>
