<?xml version="1.0" encoding="utf-8"?>
<!-- Generator: Adobe Illustrator 24.0.1, SVG Export Plug-In . SVG Version: 6.00 Build 0)  -->
<svg version="1.1" id="Layer_1" xmlns="http://www.w3.org/2000/svg" xmlns:xlink="http://www.w3.org/1999/xlink" x="0px" y="0px"
	 viewBox="0 0 144 122.87" style="enable-background:new 0 0 144 122.87;" xml:space="preserve">
<style type="text/css">
	.st0{fill:#FFFFFF;}
</style>
<g>
	<path class="st0" d="M38.51,77.13c3.63-4.01,7.1-7.88,10.62-11.71c11.68-12.71,23.7-25.07,36.97-36.16
		c10.29-8.59,21.2-16.25,33.34-22.04c6.22-2.97,12.64-5.41,19.34-7.03c1.39-0.34,2.93-0.12,4.4-0.05c0.81,0.04,1.06,0.61,0.57,1.25
		c-0.5,0.66-1.04,1.35-1.71,1.82c-32.5,22.74-59.41,51.02-82.41,83.17c-7.99,11.17-15.35,22.74-22.19,34.64
		c-1.13,1.97-2.97,2.44-4.45,1.1c-0.42-0.38-0.68-0.97-0.89-1.52c-3.46-9.16-6.77-18.37-10.4-27.46c-2.54-6.38-5.5-12.59-8.28-18.87
		c-0.29-0.66-0.65-1.28-1.01-1.91C9.65,67.58,6.02,64.04,0,63.78c0.15-0.37,0.23-0.66,0.38-0.92c1.35-2.47,2.96-4.76,5.12-6.6
		c4.37-3.72,9.29-4.45,14.59-2.5c4.34,1.6,7.64,4.59,10.43,8.21c3.15,4.09,5.38,8.69,7.3,13.45C38.02,75.93,38.23,76.44,38.51,77.13
		z"/>
</g>
</svg>
